<?xml version="1.0" encoding="UTF-8" standalone="no"?>
<!-- Created with Inkscape (http://www.inkscape.org/) -->

<svg
   xmlns:dc="http://purl.org/dc/elements/1.1/"
   xmlns:cc="http://creativecommons.org/ns#"
   xmlns:rdf="http://www.w3.org/1999/02/22-rdf-syntax-ns#"
   xmlns:svg="http://www.w3.org/2000/svg"
   xmlns="http://www.w3.org/2000/svg"
   xmlns:sodipodi="http://sodipodi.sourceforge.net/DTD/sodipodi-0.dtd"
   xmlns:inkscape="http://www.inkscape.org/namespaces/inkscape"
   width="1000"
   height="1000"
   viewBox="0 0 264.58333 264.58333"
   version="1.1"
   id="svg8"
   inkscape:version="0.92.2 (5c3e80d, 2017-08-06)"
   sodipodi:docname="rebounce.svg"
   inkscape:export-xdpi="28.799997"
   inkscape:export-ydpi="28.799997">
  <defs
     id="defs2" />
  <sodipodi:namedview
     id="base"
     pagecolor="#ffffff"
     bordercolor="#666666"
     borderopacity="1.0"
     inkscape:pageopacity="0.0"
     inkscape:pageshadow="2"
     inkscape:zoom="0.49497475"
     inkscape:cx="547.47926"
     inkscape:cy="429.86876"
     inkscape:document-units="mm"
     inkscape:current-layer="layer1"
     showgrid="false"
     inkscape:showpageshadow="false"
     inkscape:window-width="1920"
     inkscape:window-height="1011"
     inkscape:window-x="1600"
     inkscape:window-y="0"
     inkscape:window-maximized="1"
     units="px" />
  <metadata
     id="metadata5">
    <rdf:RDF>
      <cc:Work
         rdf:about="">
        <dc:format>image/svg+xml</dc:format>
        <dc:type
           rdf:resource="http://purl.org/dc/dcmitype/StillImage" />
        <dc:title />
      </cc:Work>
    </rdf:RDF>
  </metadata>
  <g
     inkscape:label="Layer 1"
     inkscape:groupmode="layer"
     id="layer1"
     transform="translate(0,-32.416684)">
    <circle
       style="opacity:1;vector-effect:none;fill:#cc6767;fill-opacity:1;stroke:none;stroke-width:1.70095444;stroke-linecap:butt;stroke-linejoin:miter;stroke-miterlimit:4;stroke-dasharray:none;stroke-dashoffset:0;stroke-opacity:1;paint-order:normal"
       id="path834"
       cx="132.29167"
       cy="164.70834"
       r="129.61897" />
    <g
       aria-label="RB"
       transform="matrix(3.9385642,0,0,3.9385642,631.20677,-140.51086)"
       style="font-style:normal;font-weight:normal;font-size:40px;line-height:1.25;font-family:sans-serif;letter-spacing:0px;word-spacing:0px;fill:#000000;fill-opacity:1;stroke:none"
       id="flowRoot860">
      <path
         d="m -124.54195,87.578047 c 0.34667,0.213333 0.61333,0.493333 0.8,0.84 0.21333,0.346667 0.32,0.706667 0.32,1.08 0,0.48 -0.16,0.92 -0.48,1.32 -0.4,0.48 -1.01333,0.667754 -1.84,0.667754 -0.64,0 -1.22667,-0.09442 -1.76,-0.387754 -1.92,-1.093333 -2.88,-3.32 -2.88,-6.68 0,-0.96 -0.32,-1.72 -0.96,-2.28 -0.61333,-0.56 -1.50667,-0.84 -2.68,-0.84 h -7.48 v 7.76 c 0,0.72 -0.2,1.306667 -0.6,1.76 -0.37333,0.453333 -0.88,0.68 -1.52,0.68 -0.77333,0 -1.45333,-0.226667 -2.04,-0.68 -0.56,-0.48 -0.84,-1.066667 -0.84,-1.76 v -23.12 c 0,-0.693333 0.22667,-1.266667 0.68,-1.72 0.48,-0.48 1.06667,-0.72 1.76,-0.72 h 11.52 c 1.38667,0 5.87786,-0.006 7.31391,-0.006 1.48597,0 -1.19391,2.899314 -0.47391,4.205981 0.74667,1.306667 1.12,2.773333 1.12,4.4 0,1.333333 -0.36,2.64 -1.08,3.92 -0.72,1.253333 -1.65333,2.253333 -2.8,3 1.68,1.173333 2.6,2.746667 2.76,4.72 0.08,0.426667 0.12,0.84 0.12,1.24 0.10667,0.826667 0.21333,1.426667 0.32,1.8 0.10667,0.346667 0.34667,0.613333 0.72,0.8 z m -8.2,-10.4 c 0.48,0 0.94667,-0.226667 1.4,-0.68 0.45333,-0.453333 0.82667,-1.053333 1.12,-1.8 0.29333,-0.773333 0.44,-1.6 0.44,-2.48 0,-0.746667 -0.14667,-1.426667 -0.44,-2.04 -0.29333,-0.64 -0.66667,-1.146667 -1.12,-1.52 -0.45333,-0.373333 -0.92,-0.56 -1.4,-0.56 h -8.76 v 9.08 z"
         style="font-style:normal;font-variant:normal;font-weight:bold;font-stretch:normal;font-family:Quicksand;-inkscape-font-specification:'Quicksand Bold';fill:#ffffff;fill-opacity:1"
         id="path1387"
         inkscape:connector-curvature="0"
         sodipodi:nodetypes="ccscscscscscscsssssscsccccccsscscssccs" />
      <path
         d="m -111.64676,75.978047 c 1.41333,0.56 2.55999,1.413333 3.43999,2.56 0.90667,1.146667 1.36,2.626667 1.36,4.44 0,3.173333 -0.90666,5.386667 -2.71999,6.64 -1.81334,1.253333 -3.97334,1.88 -6.48,1.88 h -9.96 c -0.69334,0 -1.28,-0.226667 -1.76,-0.68 -0.45334,-0.48 -0.68,-1.066667 -0.68,-1.76 v -23.12 c 0,-0.693333 0.22666,-1.266667 0.68,-1.72 0.48,-0.48 1.06666,-0.72 1.76,-0.72 h 10.08 c 5.06666,0 7.59999,2.373333 7.59999,7.12 0,1.2 -0.29333,2.266667 -0.88,3.2 -0.56,0.906667 -1.37333,1.626667 -2.43999,2.16 z m -1.88,-4.48 c 0,-1.093333 -0.28,-1.906667 -0.84,-2.44 -0.53334,-0.56 -1.29334,-0.84 -2.28,-0.84 h -6.6 v 6.24 h 6.72 c 0.8,0 1.49333,-0.266667 2.08,-0.8 0.61333,-0.533333 0.92,-1.253333 0.92,-2.16 z m -2.52,15.4 c 1.25333,0 2.22666,-0.333333 2.92,-1 0.72,-0.666667 1.08,-1.64 1.08,-2.92 0,-1.573333 -0.41334,-2.6 -1.24,-3.08 -0.82667,-0.48 -1.84,-0.72 -3.04,-0.72 h -6.92 v 7.72 z"
         style="font-style:normal;font-variant:normal;font-weight:bold;font-stretch:normal;font-family:Quicksand;-inkscape-font-specification:'Quicksand Bold';fill:#ffffff;fill-opacity:1"
         id="path1389"
         inkscape:connector-curvature="0"
         sodipodi:nodetypes="ccsssscssssssccscsccscsscsssccs" />
    </g>
  </g>
</svg>
